<?xml version="1.0" encoding="UTF-8" standalone="no"?>
<svg
   width="40.46875"
   height="51.226562"
   version="1.1"
   id="svg73"
   xmlns="http://www.w3.org/2000/svg"
   xmlns:svg="http://www.w3.org/2000/svg"
   xmlns:rdf="http://www.w3.org/1999/02/22-rdf-syntax-ns#"
   xmlns:cc="http://creativecommons.org/ns#"
   xmlns:dc="http://purl.org/dc/elements/1.1/">
  <metadata
     id="metadata77">
    <rdf:RDF>
      <cc:Work
         rdf:about="">
        <dc:format>image/svg+xml</dc:format>
        <dc:type
           rdf:resource="http://purl.org/dc/dcmitype/StillImage" />
      </cc:Work>
    </rdf:RDF>
  </metadata>
  <defs
     id="defs29">
    <style
       id="current-color-scheme"
       type="text/css">.ColorScheme-Text {color:#d8dee9} .ColorScheme-Highlight {color:#3b4252}</style>
  </defs>
  <path
     id="path1"
     style="baseline-shift:baseline;display:inline;overflow:visible;opacity:1;vector-effect:none;fill:currentColor;stroke-width:1.1;enable-background:accumulate;stop-color:#000000;stop-opacity:1"
     d="M 6.6269533,0 C 2.9727148,0 0,2.9545882 0,6.5976562 V 44.626953 c 0,3.643068 2.9727148,6.59961 6.6269533,6.59961 H 33.839843 c 3.654239,0 6.628907,-2.956542 6.628907,-6.59961 V 6.5976562 C 40.46875,2.9545882 37.494082,0 33.839843,0 Z m 16.0117187,16.330078 5.720703,0.04883 c 0.626084,1e-6 3.734788,1.439373 3.736328,3.59375 0.0013,1.901464 -1.802735,3.283203 -1.802735,3.283203 0,0 1.823709,1.312052 1.843751,2.656251 -0.09748,2.802726 -3.169562,5.056995 -4.953125,5.046875 l -6.732423,-0.04883 z m -5.759766,0.05469 c 2.710515,-0.053 3.626953,0.61914 3.626953,0.61914 l -0.480469,3.015626 c 0,0 -1.09231,-0.813661 -2.667969,-0.796875 -3.429501,0.03653 -6.372813,2.775004 -6.40039,5.851562 -0.01501,1.672755 0.879701,3.645636 2.880859,3.726563 0.610158,0.02467 1.804688,-0.123048 1.804688,-0.123048 l 0.435547,-2.142577 h -2.1875 l 0.820312,-2.185547 h 5.011719 l -1.09375,5.832031 c 0,0 -2.100143,1.484521 -3.835938,1.457032 C 9.0425203,31.547608 7.9666741,27.937144 8.0644531,24.585942 8.2170627,19.355672 13.17903,16.457106 16.878906,16.38477 Z m 8.675781,2.861329 -0.728515,2.916015 c 0,0 1.055019,0.0318 1.691406,0.03906 0.711298,0.0083 1.939106,-0.11227 2.02539,-1.792968 -0.01503,-1.164146 -1.554687,-1.121094 -1.554687,-1.121094 z m -0.980468,5.779296 -0.476563,2.96875 h 2.623047 c 0.616172,-0.0092 1.812714,-0.353898 1.775391,-1.583984 -0.04484,-1.478041 -1.576172,-1.332032 -1.576172,-1.332032 z"
     class="ColorScheme-Text" />
</svg>
