<?xml version="1.0" encoding="UTF-8" standalone="no"?>
<svg
   width="40.46875"
   height="51.226562"
   version="1.1"
   id="svg73"
   xmlns="http://www.w3.org/2000/svg"
   xmlns:svg="http://www.w3.org/2000/svg"
   xmlns:rdf="http://www.w3.org/1999/02/22-rdf-syntax-ns#"
   xmlns:cc="http://creativecommons.org/ns#"
   xmlns:dc="http://purl.org/dc/elements/1.1/">
  <metadata
     id="metadata77">
    <rdf:RDF>
      <cc:Work
         rdf:about="">
        <dc:format>image/svg+xml</dc:format>
        <dc:type
           rdf:resource="http://purl.org/dc/dcmitype/StillImage" />
      </cc:Work>
    </rdf:RDF>
  </metadata>
  <defs
     id="defs29">
    <style
       id="current-color-scheme"
       type="text/css">.ColorScheme-Text {color:#d8dee9} .ColorScheme-Highlight {color:#3b4252}</style>
  </defs>
  <path
     id="path1"
     style="baseline-shift:baseline;display:inline;overflow:visible;opacity:1;vector-effect:none;fill:currentColor;stroke-width:1.1;enable-background:accumulate;stop-color:#000000;stop-opacity:1"
     d="M 6.6269533,0 C 2.9727148,0 0,2.9545882 0,6.5976562 V 44.626953 c 0,3.643068 2.9727148,6.59961 6.6269533,6.59961 H 33.839843 c 3.654239,0 6.628907,-2.956542 6.628907,-6.59961 V 6.5976562 C 40.46875,2.9545882 37.494082,0 33.839843,0 Z m 16.3515627,15.261718 6.431641,0.002 c 0.03762,0.0025 0.07151,0.0031 0.109373,0.01563 0.05276,0.0049 0.103499,0.009 0.15625,0.02148 0.06779,0.01509 0.13582,0.03683 0.201171,0.06445 0.05025,0.01759 0.100705,0.0374 0.148439,0.0625 0.0829,0.04521 0.162076,0.100705 0.232421,0.166016 0.01989,0.01511 0.04048,0.02985 0.06054,0.04492 0.07787,0.08038 0.14785,0.167669 0.203125,0.265624 0.05521,0.09797 0.09897,0.20198 0.128906,0.3125 0.02994,0.108009 0.04492,0.217046 0.04492,0.330078 v 6.431641 c 0,0.710864 -0.57429,1.285156 -1.285156,1.285156 -0.710865,0 -1.28711,-0.574292 -1.28711,-1.285156 v -3.326171 l -6.80664,6.80664 c -0.502379,0.502377 -1.315982,0.502377 -1.81836,0 -0.50489,-0.502378 -0.50489,-1.317935 0,-1.820313 l 6.804689,-6.804687 h -3.324219 c -0.710865,0 -1.285157,-0.576244 -1.285157,-1.28711 0,-0.710865 0.574292,-1.285156 1.285157,-1.285156 z m -9.001953,2.572267 h 5.14453 c 0.710864,0 1.285157,0.574293 1.285157,1.285156 0,0.710866 -0.574293,1.287109 -1.285157,1.287109 h -5.14453 c -0.713376,0 -1.28711,0.571782 -1.28711,1.285156 v 10.289063 c 0,0.713385 0.573734,1.28711 1.28711,1.28711 h 10.289062 c 0.713376,0 1.285156,-0.573725 1.285156,-1.28711 v -5.144531 c 0,-0.710864 0.576244,-1.285156 1.287109,-1.285156 0.710869,0 1.285157,0.574292 1.285157,1.285156 v 5.144531 c 0,2.137622 -1.719804,3.859375 -3.857422,3.859375 H 13.976563 c -2.137618,0 -3.859376,-1.721753 -3.859376,-3.859375 V 21.691406 c 0,-2.137615 1.721758,-3.857421 3.859376,-3.857421 z"
     class="ColorScheme-Text" />
</svg>
