<?xml version="1.0" encoding="UTF-8" standalone="no"?>
<svg
   width="54"
   height="44"
   version="1.1"
   id="svg73"
   xmlns="http://www.w3.org/2000/svg"
   xmlns:svg="http://www.w3.org/2000/svg"
   xmlns:rdf="http://www.w3.org/1999/02/22-rdf-syntax-ns#"
   xmlns:cc="http://creativecommons.org/ns#"
   xmlns:dc="http://purl.org/dc/elements/1.1/">
  <metadata
     id="metadata77">
    <rdf:RDF>
      <cc:Work
         rdf:about="">
        <dc:format>image/svg+xml</dc:format>
        <dc:type
           rdf:resource="http://purl.org/dc/dcmitype/StillImage" />
      </cc:Work>
    </rdf:RDF>
  </metadata>
  <defs
     id="defs29">
    <style
       id="current-color-scheme"
       type="text/css">.ColorScheme-Text {color:#d8dee9} .ColorScheme-Highlight {color:#3b4252}</style>
  </defs>
  <path
     id="path5"
     style="fill:currentColor"
     d="M 2,0 C 0.892,0 0,0.892 0,2 v 1 7 29 c 0,2.77 2.23,5 5,5 h 44 c 2.77,0 5,-2.23 5,-5 V 10 C 54,7.23 51.77,5 49,5 H 27 L 21.185547,0.386719 C 20.854392,0.143686 20.44406,0 20,0 Z m 3,7 h 44 c 1.662,0 3,1.338 3,3 v 4 c 0,-1.662 -1.338,-3 -3,-3 H 5 C 3.338,11 2,12.338 2,14 V 10 C 2,8.338 3.338,7 5,7 Z"
     class="ColorScheme-Text" />
</svg>
