<?xml version="1.0" encoding="UTF-8" standalone="no"?>
<svg
   width="40.46875"
   height="51.226562"
   version="1.1"
   id="svg73"
   xmlns="http://www.w3.org/2000/svg"
   xmlns:svg="http://www.w3.org/2000/svg"
   xmlns:rdf="http://www.w3.org/1999/02/22-rdf-syntax-ns#"
   xmlns:cc="http://creativecommons.org/ns#"
   xmlns:dc="http://purl.org/dc/elements/1.1/">
  <metadata
     id="metadata77">
    <rdf:RDF>
      <cc:Work
         rdf:about="">
        <dc:format>image/svg+xml</dc:format>
        <dc:type
           rdf:resource="http://purl.org/dc/dcmitype/StillImage" />
      </cc:Work>
    </rdf:RDF>
  </metadata>
  <defs
     id="defs29">
    <style
       id="current-color-scheme"
       type="text/css">.ColorScheme-Text {color:#d8dee9} .ColorScheme-Highlight {color:#3b4252}</style>
  </defs>
  <path
     id="path1"
     style="baseline-shift:baseline;display:inline;overflow:visible;opacity:1;vector-effect:none;fill:currentColor;stroke-width:1.1;enable-background:accumulate;stop-color:#000000;stop-opacity:1"
     d="M 6.6269533,0 C 2.9727148,0 0,2.9545882 0,6.5976562 V 44.626953 c 0,3.643068 2.9727148,6.59961 6.6269533,6.59961 H 33.839843 c 3.654239,0 6.628907,-2.956542 6.628907,-6.59961 V 6.5976562 C 40.46875,2.9545882 37.494082,0 33.839843,0 Z m 1.564453,11.740234 h 5.3222657 v 0.855469 h -2.171876 v 6.759765 H 10.36914 V 12.595703 H 8.1914063 Z m 7.7441407,1.79297 c 0.343751,0 0.653428,0.0625 0.927735,0.187499 0.274306,0.121529 0.506291,0.293837 0.697264,0.519531 0.190973,0.222223 0.336806,0.49262 0.437501,0.808595 0.10417,0.312501 0.15625,0.659068 0.15625,1.041014 v 0.587891 h -3.603516 c 0.01736,0.670143 0.157981,1.164495 0.421876,1.480469 0.26736,0.315974 0.663191,0.472657 1.187499,0.472657 0.177085,0 0.340929,-0.008 0.490235,-0.02539 0.152779,-0.01736 0.29861,-0.04101 0.4375,-0.07227 0.142363,-0.03473 0.278212,-0.07639 0.410155,-0.125 0.131947,-0.05208 0.266928,-0.109373 0.402344,-0.171875 v 0.84375 c -0.13889,0.06597 -0.276693,0.123261 -0.412109,0.171875 -0.131945,0.04861 -0.269748,0.08789 -0.41211,0.119141 -0.138889,0.03125 -0.284722,0.05447 -0.437499,0.06837 -0.149307,0.01388 -0.311198,0.01954 -0.488282,0.01954 -0.381946,0 -0.730901,-0.06293 -1.046874,-0.191407 -0.315974,-0.128471 -0.589192,-0.31597 -0.818359,-0.5625 -0.225697,-0.246529 -0.400392,-0.553384 -0.525391,-0.917969 -0.125002,-0.364585 -0.187501,-0.781247 -0.187501,-1.249999 0,-0.472225 0.05729,-0.894096 0.171875,-1.265626 0.114585,-0.37153 0.276042,-0.684461 0.484375,-0.941407 0.208335,-0.260417 0.455945,-0.458331 0.744142,-0.593749 0.291667,-0.135417 0.612194,-0.203125 0.96289,-0.203125 z m 3.042969,0.103521 h 1.078125 l 1.300781,2.134765 1.302734,-2.134765 h 1.078126 l -1.849611,2.787109 1.94336,2.93164 h -1.078125 l -1.396484,-2.271484 -1.40625,2.271484 h -1.078126 l 1.943361,-2.93164 z m -3.062501,0.68164 c -0.395835,0 -0.710719,0.135415 -0.943358,0.40625 -0.229169,0.270835 -0.362196,0.66623 -0.400392,1.183594 h 2.562501 c 0,-0.236112 -0.02561,-0.452039 -0.07422,-0.646485 -0.04513,-0.197918 -0.118052,-0.366969 -0.21875,-0.505859 -0.09722,-0.138891 -0.222221,-0.245878 -0.375,-0.322265 -0.152779,-0.07638 -0.335503,-0.115234 -0.550781,-0.115235 z M 8.1699222,25.167974 H 32.505859 v 1.251954 H 8.1699222 Z m 0,6.255859 H 32.505859 v 1.251953 H 8.1699222 Z m 0,6.257814 H 24.666015 v 1.249999 H 8.1699222 Z"
     class="ColorScheme-Text" />
</svg>
