<?xml version="1.0" encoding="UTF-8" standalone="no"?>
<svg
   width="40.46875"
   height="51.226562"
   version="1.1"
   id="svg73"
   xmlns="http://www.w3.org/2000/svg"
   xmlns:svg="http://www.w3.org/2000/svg"
   xmlns:rdf="http://www.w3.org/1999/02/22-rdf-syntax-ns#"
   xmlns:cc="http://creativecommons.org/ns#"
   xmlns:dc="http://purl.org/dc/elements/1.1/">
  <metadata
     id="metadata77">
    <rdf:RDF>
      <cc:Work
         rdf:about="">
        <dc:format>image/svg+xml</dc:format>
        <dc:type
           rdf:resource="http://purl.org/dc/dcmitype/StillImage" />
      </cc:Work>
    </rdf:RDF>
  </metadata>
  <defs
     id="defs29">
    <style
       id="current-color-scheme"
       type="text/css">.ColorScheme-Text {color:#d8dee9} .ColorScheme-Highlight {color:#3b4252}</style>
  </defs>
  <path
     id="path1"
     style="baseline-shift:baseline;display:inline;overflow:visible;opacity:1;vector-effect:none;fill:currentColor;stroke-width:1.1;enable-background:accumulate;stop-color:#000000;stop-opacity:1"
     d="M 6.6269533,0 C 2.9727148,0 0,2.9545882 0,6.5976562 V 44.626953 c 0,3.643068 2.9727148,6.59961 6.6269533,6.59961 H 33.839843 c 3.654239,0 6.628907,-2.956542 6.628907,-6.59961 V 6.5976562 C 40.46875,2.9545882 37.494082,0 33.839843,0 Z M 20.382812,13.144532 A 11.34,11.34 0 0 1 31.722656,24.484375 11.34,11.34 0 0 1 20.382812,35.824218 11.34,11.34 0 0 1 9.0429691,24.484375 11.34,11.34 0 0 1 20.382812,13.144532 Z m 0,2.429686 a 8.91,8.91 0 0 0 -8.910156,8.910157 8.91,8.91 0 0 0 8.910156,8.910156 8.91,8.91 0 0 0 8.910156,-8.910156 8.91,8.91 0 0 0 -8.910156,-8.910157 z m 0,2.429688 a 6.48,6.48 0 0 1 4.464844,1.78711 l -2,1.484375 a 4.05,4.05 0 0 0 -2.464844,-0.841797 4.05,4.05 0 0 0 -4.048827,4.050781 4.05,4.05 0 0 0 4.048827,4.050781 4.05,4.05 0 0 0 2.431641,-0.816406 l 2,1.482422 a 6.48,6.48 0 0 1 -4.431641,1.763672 6.48,6.48 0 0 1 -6.478515,-6.480469 6.48,6.48 0 0 1 6.478515,-6.480469 z"
     class="ColorScheme-Text" />
</svg>
