<?xml version="1.0" encoding="UTF-8" standalone="no"?>
<svg
   width="40.46875"
   height="51.226562"
   version="1.1"
   id="svg73"
   xmlns="http://www.w3.org/2000/svg"
   xmlns:svg="http://www.w3.org/2000/svg"
   xmlns:rdf="http://www.w3.org/1999/02/22-rdf-syntax-ns#"
   xmlns:cc="http://creativecommons.org/ns#"
   xmlns:dc="http://purl.org/dc/elements/1.1/">
  <metadata
     id="metadata77">
    <rdf:RDF>
      <cc:Work
         rdf:about="">
        <dc:format>image/svg+xml</dc:format>
        <dc:type
           rdf:resource="http://purl.org/dc/dcmitype/StillImage" />
      </cc:Work>
    </rdf:RDF>
  </metadata>
  <defs
     id="defs29">
    <style
       id="current-color-scheme"
       type="text/css">.ColorScheme-Text {color:#d8dee9} .ColorScheme-Highlight {color:#3b4252}</style>
  </defs>
  <path
     id="path1"
     style="baseline-shift:baseline;display:inline;overflow:visible;opacity:1;vector-effect:none;fill:currentColor;stroke-width:1.1;enable-background:accumulate;stop-color:#000000;stop-opacity:1"
     d="M 6.6269533,0 C 2.9727148,0 0,2.9545882 0,6.5976562 V 44.626953 c 0,3.643068 2.9727148,6.59961 6.6269533,6.59961 H 33.839843 c 3.654239,0 6.628907,-2.956542 6.628907,-6.59961 V 6.5976562 C 40.46875,2.9545882 37.494082,0 33.839843,0 Z M 19.466797,13.085938 c 1.5016,0 2.71875,0.826166 2.71875,1.845702 -0.0054,0.312908 -0.290428,0.788433 -0.417969,1.025392 -0.627435,0.820459 -0.627561,1.334909 -0.470703,1.642578 h 4.652344 c 0.926934,0 1.673828,0.731554 1.673828,1.640625 v 4.972655 c 0.313718,0.153836 0.837243,0.154407 1.673828,-0.460937 0.16814,-0.126933 0.657082,-0.367327 1.044922,-0.410156 1.039569,0 1.882812,1.193357 1.882812,2.666016 0,1.472666 -0.843243,2.667969 -1.882812,2.667969 -0.319058,-0.0053 -0.80331,-0.285095 -1.044922,-0.410157 -0.836585,-0.615345 -1.36011,-0.61673 -1.673828,-0.46289 v 4.564453 c 0,0.909069 -0.746894,1.640625 -1.673828,1.640625 h -2.978516 c -0.156858,-0.307673 -0.158684,-0.820165 0.46875,-1.640625 0.127544,-0.236965 0.414411,-0.712483 0.419922,-1.025391 0,-1.019539 -1.21715,-1.845704 -2.71875,-1.845704 -1.5016,0 -2.720704,0.826165 -2.720704,1.845704 0.04368,0.380366 0.290498,0.8605 0.419923,1.025391 0.627433,0.82046 0.62756,1.332952 0.470702,1.640625 h -6.746093 c -0.926932,0 -1.673828,-0.731556 -1.673828,-1.640625 v -5.384766 c 0.313718,-0.153833 0.837248,-0.152448 1.673828,0.462891 0.241617,0.125082 0.727818,0.404645 1.046875,0.410156 1.039569,0 1.88086,-1.19531 1.88086,-2.667969 0,-1.472668 -0.841291,-2.666016 -1.88086,-2.666016 -0.387838,0.04284 -0.878736,0.283231 -1.046875,0.410157 -0.83658,0.615347 -1.36011,0.61477 -1.673828,0.460937 v -4.152343 c 0,-0.909071 0.746896,-1.640625 1.673828,-1.640625 h 5.072266 c 0.156858,-0.307669 0.156731,-0.822119 -0.470703,-1.642578 -0.129426,-0.164899 -0.374288,-0.645029 -0.417969,-1.025392 0,-1.019536 1.217149,-1.845702 2.71875,-1.845702 z"
     class="ColorScheme-Text" />
</svg>
